<svg xmlns="http://www.w3.org/2000/svg" width="129" height="40" viewBox="0 0 129 40"><path fill-rule="evenodd" clip-rule="evenodd" fill="#E50026" d="M60.54 17.47c2.15 0 3.65-.53 3.65-2.05 0-1.53-1.5-2.06-3.65-2.06h-13.37v4.11h13.37zm-18.26-7.5h18.09c4.89 0 8.8 1.38 8.8 5.45 0 3.99-3.94 5.32-8.73 5.32h-.3l10.01 6.18h-7.56l-9.32-6.06h-6.1v6.06h-4.89v-16.95z"/><path fill-rule="evenodd" clip-rule="evenodd" fill="#fff" d="M76.19 13.36v5.2h12.51c2.64 0 4.5-.65 4.5-2.61 0-1.94-1.86-2.59-4.5-2.59h-12.51zm-4.89 13.56v-16.95h17.08c5.25 0 9.81 1.5 9.81 5.98s-4.56 6-9.81 6h-12.19v4.97h-4.89zM129 9.97l-12.91 16.95h-5.64l-12.91-16.95h5.64l5.45 7.26 4.62 6.52 4.67-6.52 5.44-7.26zM43.59 31.19h.14c.61 0 1.04-.18 1.04-.87s-.45-.83-1.03-.83h-.15v1.7zm2.72 3.06h-1.33l-1.38-2.28h-.01v2.28h-1.11v-5.66h1.5c1.12 0 1.89.5 1.89 1.71 0 .71-.4 1.43-1.16 1.56l1.6 2.39zM48.93 31.92c-.05-.37-.29-.74-.7-.74-.42 0-.65.36-.71.74h1.41zm-1.44.65c0 .47.18.99.73.99.35 0 .57-.21.71-.5l.97.16c-.26.73-.9 1.15-1.68 1.15-1.14 0-1.84-.81-1.84-1.93 0-1.12.6-2 1.79-2 1.21 0 1.75.9 1.75 2.01v.12h-2.43zM51.46 30.9h.02c.21-.33.58-.46.96-.46.99 0 1.27.7 1.27 1.56v2.25h-1.05v-1.95c0-.45.03-1.02-.57-1.02-.62 0-.63.7-.63 1.14v1.83h-1.05v-3.69h1.05v.34zM57.01 32.4c0-.49-.33-1.03-.87-1.03s-.87.54-.87 1.03c0 .5.33 1.04.87 1.04s.87-.54.87-1.04zm-.1 1.5h-.02c-.22.3-.61.47-.99.47-1.08 0-1.7-.99-1.7-1.98 0-.98.63-1.95 1.69-1.95.38 0 .77.17 1 .46h.02v-3.01h1.05v6.36h-1.05v-.35zM60.99 31.92c-.05-.37-.29-.74-.69-.74-.43 0-.66.36-.71.74h1.4zm-1.43.65c0 .47.18.99.73.99.34 0 .56-.21.7-.5l.97.16c-.25.73-.9 1.15-1.67 1.15-1.14 0-1.84-.81-1.84-1.93 0-1.12.59-2 1.79-2s1.75.9 1.75 2.01v.12h-2.43zM63.53 30.95h.01c.21-.32.53-.51.92-.51.15 0 .3.04.43.09l-.12.98c-.13-.09-.28-.14-.44-.14-.73 0-.8.65-.8 1.22v1.66h-1.06v-3.69h1.06v.39zM66.34 34.25h-1.06v-3.69h1.06v3.69zm.09-5.23c0 .35-.27.62-.62.62s-.62-.27-.62-.62c0-.34.27-.62.62-.62s.62.28.62.62zM68.18 30.9h.02c.22-.33.58-.46.96-.46.99 0 1.28.7 1.28 1.56v2.25h-1.05v-1.95c0-.45.02-1.02-.58-1.02-.62 0-.63.7-.63 1.14v1.83h-1.05v-3.69h1.05v.34zM73.74 32.41c0-.5-.34-1.04-.88-1.04s-.87.54-.87 1.04c0 .49.33 1.03.87 1.03s.88-.54.88-1.03zm.92 1.61c0 1.2-.41 2.19-1.79 2.19-.9 0-1.81-.55-1.86-1.53h1.11c.05.39.33.64.73.64.74 0 .76-.65.76-1.2v-.24h-.02c-.22.3-.61.49-1 .49-1.09 0-1.66-.95-1.66-1.94 0-1.01.61-1.99 1.71-1.99.37 0 .74.19.95.48h.02v-.36h1.05v3.46zM78.33 33.72c0 .37-.31.68-.67.68-.37 0-.67-.31-.67-.68 0-.37.3-.66.67-.66.36 0 .67.29.67.66zm0-2.7c0 .37-.31.68-.67.68-.37 0-.67-.31-.67-.68s.3-.66.67-.66c.36 0 .67.29.67.66zM81.44 31.22h.23c.65 0 1-.15 1-.88s-.42-.83-1.03-.83h-.2v1.71zm0 3.03h-1.1v-5.66h1.5c1.19 0 1.96.48 1.96 1.76 0 1.2-.65 1.78-1.81 1.78h-.55v2.12zM85.09 32.41c0 .49.33 1.03.87 1.03s.87-.54.87-1.03c0-.51-.33-1.04-.87-1.04s-.87.53-.87 1.04zm2.8 0c0 1.14-.78 1.96-1.93 1.96-1.16 0-1.94-.82-1.94-1.96 0-1.15.79-1.97 1.94-1.97s1.93.82 1.93 1.97zM88.39 27.89h1.05v6.36h-1.05zM89.68 30.56h1.19l.88 2.1.94-2.1h1.18l-2.69 5.65h-1.15l1.21-2.53zM96.64 32.41c0-.5-.33-1.04-.87-1.04s-.87.54-.87 1.04c0 .49.33 1.03.87 1.03s.87-.54.87-1.03zm.92 1.61c0 1.2-.4 2.19-1.79 2.19-.9 0-1.81-.55-1.86-1.53h1.11c.06.39.33.64.73.64.75 0 .76-.65.76-1.2v-.24h-.01c-.23.3-.62.49-1.01.49-1.08 0-1.66-.95-1.66-1.94 0-1.01.62-1.99 1.71-1.99.37 0 .74.19.96.48h.01v-.36h1.05v3.46zM99.12 32.41c0 .49.34 1.03.88 1.03s.87-.54.87-1.03c0-.51-.33-1.04-.87-1.04s-.88.53-.88 1.04zm2.81 0c0 1.14-.78 1.96-1.93 1.96-1.16 0-1.94-.82-1.94-1.96 0-1.15.79-1.97 1.94-1.97 1.14 0 1.93.82 1.93 1.97zM103.48 30.9h.02c.21-.33.58-.46.96-.46.99 0 1.27.7 1.27 1.56v2.25h-1.05v-1.95c0-.45.03-1.02-.57-1.02-.62 0-.63.7-.63 1.14v1.83h-1.05v-3.69h1.05v.34zM108.65 33.18l-1.08 2.26-.7-.08.82-2.28zM110.76 32.4h.02l1.26-3.81h1.18l-2.2 5.81h-.64l-2.17-5.81h1.19zM114.31 32.41c0 .49.33 1.03.87 1.03s.87-.54.87-1.03c0-.51-.33-1.04-.87-1.04s-.87.53-.87 1.04zm2.81 0c0 1.14-.79 1.96-1.94 1.96-1.16 0-1.94-.82-1.94-1.96 0-1.15.79-1.97 1.94-1.97s1.94.82 1.94 1.97zM117.41 30.56h1.28l.68.96.59-.96h1.29l-1.31 1.68 1.56 2.01h-1.3l-.94-1.29-.85 1.29h-1.31l1.58-2.01zM124.02 31.92c-.05-.37-.29-.74-.7-.74-.42 0-.65.36-.7.74h1.4zm-1.43.65c0 .47.18.99.72.99.35 0 .57-.21.71-.5l.97.16c-.26.73-.9 1.15-1.68 1.15-1.14 0-1.84-.81-1.84-1.93 0-1.12.6-2 1.79-2 1.21 0 1.75.9 1.75 2.01v.12h-2.42zM125.5 27.89h1.05v6.36h-1.05z"/><path fill="#fff" d="M11.19 18.35h6.16c1.85 0 3.36-1.5 3.36-3.35s-1.51-3.35-3.36-3.35h-17.35v18.35l17.35 10 15.7-9.05-21.86-12.6zM17.35 8.35c3.68 0 6.66 2.98 6.66 6.65 0 2.2-1.07 4.15-2.73 5.36l13.42 7.74v-18.1l-17.35-10-14.49 8.35h14.49z"/></svg>